# xmcd
#
# Track frame offsets:
# 150
# 11557
# 21424
# 36562
# 47638
# 57691
# 71587
# 83128
# 93235
# 105600
# 119215
# 130843
# 143402
# 154236
# 165864
#
# Disc length: 2380 seconds
#
# Revision: 1
# Processed by: cddbd v1.4PL0 Copyright (c) Steve Scherf et al.
# Submitted via: CedeCatalogueitor 2.5 http://usuarios.lycos.es/kakasboy
#
DISCID=cc094a0f
DTITLE=Elvis Presley - Baladas [CD 2)
DYEAR=1998
DGENRE=
TTITLE0=One Night
TTITLE1=True Love
TTITLE2=(There Will Be) Peace In The Valley (For Me)
TTITLE3=Any Place Is Paradise
TTITLE4=I Want To Be Free
TTITLE5=Lonesome Cowboy
TTITLE6=Blue Moon
TTITLE7=Poor Boy
TTITLE8=Love Me
TTITLE9=Can't Help Falling In Love
TTITLE10=Blue Hawaii
TTITLE11=Lonely Man
TTITLE12=The Girl Of My Best Friend
TTITLE13=My Wish Came True
TTITLE14=Don't
EXTD=
EXTT0=
EXTT1=
EXTT2=
EXTT3=
EXTT4=
EXTT5=
EXTT6=
EXTT7=
EXTT8=
EXTT9=
EXTT10=
EXTT11=
EXTT12=
EXTT13=
EXTT14=
PLAYORDER=
